<svg width="78" height="68" viewBox="0 0 78 68" fill="none" xmlns="http://www.w3.org/2000/svg">
<path d="M48.75 46.1429C48.75 47.4846 47.6592 48.5714 46.3125 48.5714H31.6875C30.3408 48.5714 29.25 47.4846 29.25 46.1429V38.8571H0V60.7143C0 64.6 3.4125 68 7.3125 68H70.6875C74.5875 68 78 64.6 78 60.7143V38.8571H48.75V46.1429ZM70.6875 14.5714H58.5V7.28571C58.5 3.4 55.0875 0 51.1875 0H26.8125C22.9125 0 19.5 3.4 19.5 7.28571V14.5714H7.3125C3.4125 14.5714 0 17.9714 0 21.8571V34H78V21.8571C78 17.9714 74.5875 14.5714 70.6875 14.5714ZM48.75 14.5714H29.25V9.71429H48.75V14.5714Z" fill="#0A7DBA"/>
</svg>
