<svg width="78" height="89" viewBox="0 0 78 89" fill="none" xmlns="http://www.w3.org/2000/svg">
<path d="M55.6098 55.7309L39 72.3133L22.3902 55.7309C9.94152 56.2698 0 66.4382 0 78.988V80.6567C0 85.2629 3.7433 89 8.35714 89H69.6429C74.2567 89 78 85.2629 78 80.6567V78.988C78 66.4382 68.0585 56.2698 55.6098 55.7309ZM2.36786 13.8752L3.48214 14.1359V24.2869C2.26339 25.017 1.39286 26.2859 1.39286 27.8155C1.39286 29.2756 2.19375 30.4923 3.32545 31.2397L0.609375 42.0687C0.313393 43.2681 0.975 44.5022 1.93259 44.5022H9.21027C10.1679 44.5022 10.8295 43.2681 10.5335 42.0687L7.81741 31.2397C8.94911 30.4923 9.75 29.2756 9.75 27.8155C9.75 26.2859 8.87946 25.017 7.66071 24.2869V15.144L19.1518 17.9078C17.6545 20.8975 16.7143 24.2348 16.7143 27.8155C16.7143 40.1045 26.6906 50.0644 39 50.0644C51.3094 50.0644 61.2857 40.1045 61.2857 27.8155C61.2857 24.2348 60.3629 20.8975 58.8482 17.9078L75.6147 13.8752C78.7835 13.1103 78.7835 9.16464 75.6147 8.39983L42.4647 0.404131C40.2013 -0.13471 37.8161 -0.13471 35.5527 0.404131L2.36786 8.38245C-0.783482 9.14726 -0.783482 13.1103 2.36786 13.8752Z" fill="#0A7DBA"/>
</svg>
