<svg width="78" height="68" viewBox="0 0 78 68" fill="none" xmlns="http://www.w3.org/2000/svg">
<path d="M36.5629 9.71429H46.3128C46.9592 9.71429 47.5792 9.45842 48.0363 9.00297C48.4935 8.54753 48.7503 7.92981 48.7503 7.28571V2.42857C48.7503 1.78447 48.4935 1.16676 48.0363 0.711312C47.5792 0.255867 46.9592 0 46.3128 0H36.5629C35.9164 0 35.2964 0.255867 34.8393 0.711312C34.3822 1.16676 34.1254 1.78447 34.1254 2.42857V7.28571C34.1254 7.92981 34.3822 8.54753 34.8393 9.00297C35.2964 9.45842 35.9164 9.71429 36.5629 9.71429ZM36.5629 29.1429H56.0627C56.7091 29.1429 57.3291 28.887 57.7863 28.4315C58.2434 27.9761 58.5002 27.3584 58.5002 26.7143V21.8571C58.5002 21.213 58.2434 20.5953 57.7863 20.1399C57.3291 19.6844 56.7091 19.4286 56.0627 19.4286H36.5629C35.9164 19.4286 35.2964 19.6844 34.8393 20.1399C34.3822 20.5953 34.1254 21.213 34.1254 21.8571V26.7143C34.1254 27.3584 34.3822 27.9761 34.8393 28.4315C35.2964 28.887 35.9164 29.1429 36.5629 29.1429ZM75.5625 58.2857H36.5629C35.9164 58.2857 35.2964 58.5416 34.8393 58.997C34.3822 59.4525 34.1254 60.0702 34.1254 60.7143V65.5714C34.1254 66.2155 34.3822 66.8332 34.8393 67.2887C35.2964 67.7441 35.9164 68 36.5629 68H75.5625C76.209 68 76.829 67.7441 77.2861 67.2887C77.7432 66.8332 78 66.2155 78 65.5714V60.7143C78 60.0702 77.7432 59.4525 77.2861 58.997C76.829 58.5416 76.209 58.2857 75.5625 58.2857ZM36.5629 48.5714H65.8126C66.4591 48.5714 67.079 48.3156 67.5362 47.8601C67.9933 47.4047 68.2501 46.787 68.2501 46.1429V41.2857C68.2501 40.6416 67.9933 40.0239 67.5362 39.5685C67.079 39.113 66.4591 38.8571 65.8126 38.8571H36.5629C35.9164 38.8571 35.2964 39.113 34.8393 39.5685C34.3822 40.0239 34.1254 40.6416 34.1254 41.2857V46.1429C34.1254 46.787 34.3822 47.4047 34.8393 47.8601C35.2964 48.3156 35.9164 48.5714 36.5629 48.5714ZM2.43816 19.4286H9.75059V65.5714C9.75059 66.2155 10.0074 66.8332 10.4645 67.2887C10.9216 67.7441 11.5416 68 12.1881 68H17.063C17.7095 68 18.3295 67.7441 18.7866 67.2887C19.2437 66.8332 19.5005 66.2155 19.5005 65.5714V19.4286H26.8129C28.9777 19.4286 30.0715 16.8118 28.5359 15.2833L16.3485 0.711875C15.8915 0.256774 15.2717 0.00112561 14.6256 0.00112561C13.9794 0.00112561 13.3596 0.256774 12.9026 0.711875L0.715164 15.2833C-0.814354 16.8088 0.271848 19.4286 2.43816 19.4286Z" fill="#0A7DBA"/>
</svg>
